<svg width="634" height="110" viewBox="0 0 634 110" fill="none" xmlns="http://www.w3.org/2000/svg">
<path d="M0.140625 108V5.625H36C48.4219 5.625 57.8438 8.01562 64.2656 12.7969C70.6875 17.5312 73.8984 24.4922 73.8984 33.6797C73.8984 38.6953 72.6094 43.125 70.0312 46.9688C67.4531 50.7656 63.8672 53.5547 59.2734 55.3359C64.5234 56.6484 68.6484 59.2969 71.6484 63.2812C74.6953 67.2656 76.2188 72.1406 76.2188 77.9062C76.2188 87.75 73.0781 95.2031 66.7969 100.266C60.5156 105.328 51.5625 107.906 39.9375 108H0.140625ZM21.2344 63.4219V91.0547H39.3047C44.2734 91.0547 48.1406 89.8828 50.9062 87.5391C53.7188 85.1484 55.125 81.8672 55.125 77.6953C55.125 68.3203 50.2734 63.5625 40.5703 63.4219H21.2344ZM21.2344 48.5156H36.8438C47.4844 48.3281 52.8047 44.0859 52.8047 35.7891C52.8047 31.1484 51.4453 27.8203 48.7266 25.8047C46.0547 23.7422 41.8125 22.7109 36 22.7109H21.2344V48.5156ZM112.219 108H91.8281V31.9219H112.219V108ZM90.6328 12.2344C90.6328 9.1875 91.6406 6.67969 93.6562 4.71094C95.7188 2.74219 98.5078 1.75781 102.023 1.75781C105.492 1.75781 108.258 2.74219 110.32 4.71094C112.383 6.67969 113.414 9.1875 113.414 12.2344C113.414 15.3281 112.359 17.8594 110.25 19.8281C108.188 21.7969 105.445 22.7812 102.023 22.7812C98.6016 22.7812 95.8359 21.7969 93.7266 19.8281C91.6641 17.8594 90.6328 15.3281 90.6328 12.2344ZM125.859 69.2578C125.859 61.7109 127.312 54.9844 130.219 49.0781C133.125 43.1719 137.297 38.6016 142.734 35.3672C148.219 32.1328 154.57 30.5156 161.789 30.5156C172.055 30.5156 180.422 33.6563 186.891 39.9375C193.406 46.2188 197.039 54.75 197.789 65.5312L197.93 70.7344C197.93 82.4062 194.672 91.7812 188.156 98.8594C181.641 105.891 172.898 109.406 161.93 109.406C150.961 109.406 142.195 105.891 135.633 98.8594C129.117 91.8281 125.859 82.2656 125.859 70.1719V69.2578ZM146.18 70.7344C146.18 77.9531 147.539 83.4844 150.258 87.3281C152.977 91.125 156.867 93.0234 161.93 93.0234C166.852 93.0234 170.695 91.1484 173.461 87.3984C176.227 83.6016 177.609 77.5547 177.609 69.2578C177.609 62.1797 176.227 56.6953 173.461 52.8047C170.695 48.9141 166.805 46.9688 161.789 46.9688C156.82 46.9688 152.977 48.9141 150.258 52.8047C147.539 56.6484 146.18 62.625 146.18 70.7344ZM238.078 77.4844L230.766 84.7969V108H210.445V0H230.766V59.8359L234.703 54.7734L254.18 31.9219H278.578L251.086 63.6328L280.969 108H257.625L238.078 77.4844ZM330.117 50.9766C327.352 50.6016 324.914 50.4141 322.805 50.4141C315.117 50.4141 310.078 53.0156 307.688 58.2188V108H287.367V31.9219H306.562L307.125 40.9922C311.203 34.0078 316.852 30.5156 324.07 30.5156C326.32 30.5156 328.43 30.8203 330.398 31.4297L330.117 50.9766ZM381.938 108C381 106.172 380.32 103.898 379.898 101.18C374.977 106.664 368.578 109.406 360.703 109.406C353.25 109.406 347.062 107.25 342.141 102.938C337.266 98.625 334.828 93.1875 334.828 86.625C334.828 78.5625 337.805 72.375 343.758 68.0625C349.758 63.75 358.406 61.5703 369.703 61.5234H379.055V57.1641C379.055 53.6484 378.141 50.8359 376.312 48.7266C374.531 46.6172 371.695 45.5625 367.805 45.5625C364.383 45.5625 361.688 46.3828 359.719 48.0234C357.797 49.6641 356.836 51.9141 356.836 54.7734H336.516C336.516 50.3672 337.875 46.2891 340.594 42.5391C343.312 38.7891 347.156 35.8594 352.125 33.75C357.094 31.5937 362.672 30.5156 368.859 30.5156C378.234 30.5156 385.664 32.8828 391.148 37.6172C396.68 42.3047 399.445 48.9141 399.445 57.4453V90.4219C399.492 97.6406 400.5 103.102 402.469 106.805V108H381.938ZM365.133 93.8672C368.133 93.8672 370.898 93.2109 373.43 91.8984C375.961 90.5391 377.836 88.7344 379.055 86.4844V73.4062H371.461C361.289 73.4062 355.875 76.9219 355.219 83.9531L355.148 85.1484C355.148 87.6797 356.039 89.7656 357.82 91.4062C359.602 93.0469 362.039 93.8672 365.133 93.8672ZM442.688 77.4844L435.375 84.7969V108H415.055V0H435.375V59.8359L439.312 54.7734L458.789 31.9219H483.188L455.695 63.6328L485.578 108H462.234L442.688 77.4844ZM525.586 109.406C514.43 109.406 505.336 105.984 498.305 99.1406C491.32 92.2969 487.828 83.1797 487.828 71.7891V69.8203C487.828 62.1797 489.305 55.3594 492.258 49.3594C495.211 43.3125 499.383 38.6719 504.773 35.4375C510.211 32.1562 516.398 30.5156 523.336 30.5156C533.742 30.5156 541.922 33.7969 547.875 40.3594C553.875 46.9219 556.875 56.2266 556.875 68.2734V76.5703H508.43C509.086 81.5391 511.055 85.5234 514.336 88.5234C517.664 91.5234 521.859 93.0234 526.922 93.0234C534.75 93.0234 540.867 90.1875 545.273 84.5156L555.258 95.6953C552.211 100.008 548.086 103.383 542.883 105.82C537.68 108.211 531.914 109.406 525.586 109.406ZM523.266 46.9688C519.234 46.9688 515.953 48.3281 513.422 51.0469C510.938 53.7656 509.344 57.6562 508.641 62.7188H536.906V61.1016C536.812 56.6016 535.594 53.1328 533.25 50.6953C530.906 48.2109 527.578 46.9688 523.266 46.9688ZM587.18 31.9219L587.812 40.7109C593.25 33.9141 600.539 30.5156 609.68 30.5156C617.742 30.5156 623.742 32.8828 627.68 37.6172C631.617 42.3516 633.633 49.4297 633.727 58.8516V108H613.406V59.3438C613.406 55.0312 612.469 51.9141 610.594 49.9922C608.719 48.0234 605.602 47.0391 601.242 47.0391C595.523 47.0391 591.234 49.4766 588.375 54.3516V108H568.055V31.9219H587.18Z" fill="#2B818C"/>
</svg>
